<?xml version="1.0" standalone="no"?>
<!DOCTYPE svg PUBLIC "-//W3C//DTD SVG 20010904//EN"
 "http://www.w3.org/TR/2001/REC-SVG-20010904/DTD/svg10.dtd">
<svg version="1.0" xmlns="http://www.w3.org/2000/svg"
 width="448.000000pt" height="448.000000pt" viewBox="0 0 448.000000 448.000000"
 preserveAspectRatio="xMidYMid meet">
<metadata>
Created by potrace 1.14, written by Peter Selinger 2001-2017
</metadata>
<g transform="translate(0.000000,448.000000) scale(0.100000,-0.100000)"
fill="#000000" stroke="none">
<path d="M2277 4234 c-1 -1 -63 -4 -137 -8 -75 -4 -147 -8 -160 -10 -14 -2
-52 -7 -85 -10 -33 -4 -71 -8 -85 -10 -14 -3 -43 -7 -65 -10 -183 -23 -586
-190 -793 -327 -24 -16 -45 -29 -48 -29 -3 0 -48 -32 -99 -71 -108 -81 -215
-183 -274 -261 -44 -59 -111 -181 -111 -204 0 -7 -15 -37 -34 -66 -99 -156
-205 -423 -240 -608 -3 -14 -10 -52 -16 -85 -12 -57 -8 -334 5 -440 67 -536
441 -977 1100 -1294 240 -116 573 -231 714 -248 25 -3 51 -10 56 -16 7 -6 7
-8 0 -5 -5 3 -48 9 -95 13 -93 7 -113 9 -180 20 -25 4 -54 8 -65 10 -63 8
-112 22 -214 62 -127 49 -221 74 -254 67 -63 -11 -76 -17 -100 -42 -50 -52
-55 -108 -16 -183 23 -45 65 -82 138 -118 50 -26 182 -68 236 -76 11 -2 47 -8
80 -14 100 -18 230 -25 445 -25 206 0 455 10 469 18 4 3 23 8 42 11 114 18
205 46 419 130 385 150 670 351 803 568 21 34 57 85 82 113 152 177 254 394
262 559 l3 80 -18 -55 c-64 -191 -220 -366 -472 -533 -91 -59 -249 -145 -315
-170 -74 -29 -279 -90 -310 -93 -170 -15 -588 -22 -661 -10 -16 2 -69 7 -119
11 -49 4 -92 8 -94 10 -2 2 12 13 30 24 19 11 39 24 45 29 5 5 21 15 35 22 21
12 476 289 925 566 280 172 640 333 904 405 25 7 50 14 55 15 6 2 50 11 98 20
49 9 95 24 103 32 22 22 12 233 -22 471 -18 122 -25 138 -62 148 -53 13 -168
71 -228 115 -120 89 -166 169 -167 288 0 61 5 87 25 132 44 95 107 178 214
283 57 57 100 107 99 116 -2 8 -6 42 -9 75 -4 32 -11 95 -16 139 -5 44 -12
109 -16 145 -12 123 -32 130 -171 67 -54 -25 -125 -57 -158 -72 -33 -15 -120
-56 -193 -91 -73 -35 -135 -64 -138 -64 -2 0 -84 -39 -181 -86 -98 -48 -206
-99 -241 -115 -34 -16 -147 -70 -250 -120 -103 -51 -263 -129 -357 -174 -93
-46 -305 -149 -470 -230 -165 -81 -309 -151 -320 -156 -11 -5 -27 -13 -35 -18
-14 -9 -107 -54 -458 -222 -67 -33 -124 -59 -127 -59 -2 0 -30 -12 -62 -26
-86 -39 -91 -41 -183 -73 -119 -41 -116 -40 -127 -64 -25 -60 16 -437 52 -477
9 -10 28 -21 42 -25 57 -14 211 -95 260 -136 98 -83 137 -206 108 -339 -13
-59 -46 -140 -57 -140 -13 0 -125 97 -188 165 -188 198 -325 453 -383 712 -27
118 -14 352 28 543 13 55 71 204 105 267 116 216 267 363 504 494 112 61 347
140 491 164 158 28 192 32 285 41 80 7 346 7 420 0 95 -9 154 -17 173 -22 39
-12 -1 34 -56 62 -44 23 -265 81 -399 104 -171 30 -222 34 -390 35 -144 0
-182 6 -115 18 167 30 279 46 372 53 203 15 545 9 663 -12 38 -6 105 -25 277
-76 90 -27 171 -27 216 -1 73 44 90 120 45 198 -77 130 -282 192 -669 199 -64
1 -118 2 -120 0z"/>
</g>
</svg>
