<?xml version="1.0" standalone="no"?>
<!DOCTYPE svg PUBLIC "-//W3C//DTD SVG 20010904//EN"
 "http://www.w3.org/TR/2001/REC-SVG-20010904/DTD/svg10.dtd">
<svg version="1.0" xmlns="http://www.w3.org/2000/svg"
 width="1366.000000pt" height="768.000000pt" viewBox="0 0 1366.000000 768.000000"
 preserveAspectRatio="xMidYMid meet">

<g transform="translate(0.000000,768.000000) scale(0.100000,-0.100000)"
fill="#000000" stroke="none">
<path d="M2810 5824 c-19 -2 -84 -9 -145 -15 -151 -14 -224 -27 -333 -56 -248
-66 -633 -261 -839 -425 -158 -127 -318 -326 -338 -423 -6 -27 -2 -25 49 31
214 236 538 417 916 514 267 68 647 101 936 82 196 -14 252 -24 423 -77 175
-54 277 -45 322 29 25 42 24 94 -4 147 -30 56 -87 100 -174 133 -129 49 -196
57 -498 61 -154 2 -296 1 -315 -1z"/>
<path d="M4705 5606 c-294 -130 -1214 -570 -2000 -956 -954 -469 -1043 -510
-1240 -580 -135 -47 -129 -36 -121 -220 6 -168 26 -293 52 -321 8 -9 27 -20
41 -24 14 -3 68 -26 119 -50 202 -94 287 -235 250 -414 -8 -39 -24 -91 -35
-116 l-20 -45 92 -61 c127 -84 306 -170 467 -223 127 -42 405 -106 463 -106
15 0 111 52 244 134 335 205 789 484 878 539 44 27 166 91 270 142 275 134
487 211 717 260 60 13 115 28 121 34 22 22 -26 540 -54 593 -5 10 -14 18 -20
18 -6 0 -47 16 -91 35 -256 113 -367 280 -309 466 31 97 109 209 226 324 l102
100 -26 228 c-23 196 -29 231 -46 243 -23 17 -41 17 -80 0z m-28 -232 c25 -39
44 -140 32 -173 -6 -14 -43 -60 -83 -101 -208 -216 -280 -426 -217 -631 48
-153 193 -311 355 -385 60 -27 71 -44 86 -139 16 -98 13 -172 -8 -193 -10 -10
-70 -36 -133 -57 -157 -52 -417 -167 -647 -286 -203 -105 -216 -108 -242 -60
-11 21 -160 1486 -160 1574 0 39 5 58 18 70 29 26 495 250 647 311 137 54 267
94 312 95 14 1 29 -9 40 -25z m-1788 -1522 c4 -1 60 17 124 42 64 24 117 41
117 37 0 -4 -33 -81 -73 -171 l-74 -164 23 -130 c13 -71 21 -132 18 -135 -2
-3 -53 -13 -112 -23 l-107 -17 -117 -123 -117 -123 -2 125 c0 69 -4 135 -7
147 -4 13 -45 52 -90 89 -97 76 -99 65 24 161 l72 57 63 156 c34 85 69 170 76
188 l14 33 80 -73 c44 -40 84 -74 88 -76z"/>
<path d="M4385 2554 c-300 -245 -700 -382 -1235 -425 -154 -12 -262 -9 -507
15 -235 23 -331 43 -472 96 -194 74 -280 81 -340 27 -52 -48 -59 -110 -20
-188 89 -178 548 -267 1179 -229 245 15 393 51 690 170 293 116 568 300 702
468 49 62 96 133 86 132 -2 -1 -39 -30 -83 -66z"/>
</g>
</svg>
