<?xml version="1.0" standalone="no"?>
<!DOCTYPE svg PUBLIC "-//W3C//DTD SVG 20010904//EN"
 "http://www.w3.org/TR/2001/REC-SVG-20010904/DTD/svg10.dtd">
<svg version="1.0" xmlns="http://www.w3.org/2000/svg"
 width="71.000000pt" height="65.000000pt" viewBox="0 0 71.000000 65.000000"
 preserveAspectRatio="xMidYMid meet">

<g transform="translate(0.000000,65.000000) scale(0.100000,-0.100000)"
fill="#000000" stroke="none">
<path d="M245 626 c-59 -19 -126 -55 -157 -84 -38 -35 -35 -50 2 -18 17 14 61
35 98 47 56 17 87 20 192 17 105 -2 125 -1 125 12 0 8 -11 20 -25 27 -32 16
-182 16 -235 -1z"/>
<path d="M650 602 c-8 -3 -132 -58 -275 -122 -143 -64 -268 -120 -277 -123
-35 -13 -18 -76 25 -97 26 -12 33 -22 35 -53 4 -45 22 -59 108 -83 l61 -16
111 62 c117 65 215 109 245 110 23 0 31 22 23 64 -5 25 -16 40 -41 55 -44 25
-48 66 -10 101 18 17 25 34 25 61 0 41 -6 49 -30 41z m10 -49 c0 -9 -12 -29
-26 -44 -41 -42 -36 -83 15 -131 43 -39 47 -55 20 -69 -54 -29 -153 -68 -157
-64 -6 5 -31 198 -32 241 0 16 13 27 58 46 99 44 122 48 122 21z m-283 -238
c-6 -11 -10 -32 -9 -47 2 -21 -2 -28 -15 -28 -9 0 -27 -10 -40 -22 l-23 -21 0
27 c0 14 -7 29 -15 32 -12 5 -10 12 10 36 14 16 25 33 25 37 0 5 18 8 39 7 36
-1 38 -2 28 -21z"/>
<path d="M558 94 c-69 -36 -181 -51 -270 -35 -108 19 -122 19 -126 -2 -7 -33
59 -50 178 -45 95 3 112 6 171 35 36 18 74 42 84 53 22 24 21 24 -37 -6z"/>
</g>
</svg>
